<?xml version="1.0" encoding="utf-8"?>
<!-- Generator: Adobe Illustrator 17.0.0, SVG Export Plug-In . SVG Version: 6.00 Build 0)  -->
<!DOCTYPE svg PUBLIC "-//W3C//DTD SVG 1.1//EN" "http://www.w3.org/Graphics/SVG/1.1/DTD/svg11.dtd">
<svg version="1.1" id="Capa_1" xmlns="http://www.w3.org/2000/svg" xmlns:xlink="http://www.w3.org/1999/xlink" x="0px" y="0px"
	 width="187px" height="338px" viewBox="0 0 187 338" enable-background="new 0 0 187 338" xml:space="preserve">
<g>
	<g>
		<polygon fill="#2D3A46" points="118.889,91.432 142.444,126.192 186.673,134.241 162.697,98.651 		"/>
		<polygon fill="#2D3A46" points="118.889,91.432 118.232,92.041 186.016,134.85 186.673,134.241 		"/>
		<polygon fill="#1D262D" points="118.232,92.041 141.787,126.801 186.016,134.85 162.039,99.26 		"/>
		<path fill="#2D3A46" d="M168.206,124.082l-4.904,7.426l-6.565,9.937l-32.815-21.084c0.274-0.584,4.741-6.401,8.311-11.013
			c2.435-3.132,4.448-5.707,4.448-5.707C151.377,104.035,161.91,110.808,168.206,124.082z"/>
		<path fill="#425766" d="M143.67,104.373c-2.215-0.42-4.543-0.666-6.989-0.732c0,0-2.013,2.575-4.448,5.707
			c-3.569,4.612-8.037,10.429-8.311,11.013l5.406,3.474C133.901,117.294,138.542,110.531,143.67,104.373z"/>
		<path opacity="0.49" fill="#798B9C" d="M168.206,124.082l-4.904,7.426c-0.019-0.056-0.038-0.119-0.056-0.174
			c-6.22-20.706-30.971-21.677-30.971-21.677l-0.042-0.31c2.435-3.132,4.448-5.707,4.448-5.707
			C151.377,104.035,161.91,110.808,168.206,124.082z"/>
	</g>
	<g>
		<path fill="#7BBA74" d="M161.803,334.078h-60.74c-55.018,0-99.619-46.909-99.619-104.774v-64.713
			c0-24.876,19.174-45.042,42.826-45.042h74.707c23.652,0,42.826,20.166,42.826,45.042V334.078z"/>
		<path fill-rule="evenodd" clip-rule="evenodd" fill="#FFFFFF" d="M112.071,132.338c-12.126,0-23.06,4.838-30.814,12.588
			c-7.754-7.75-18.688-12.588-30.814-12.588c-23.513,0-42.575,18.159-42.575,40.56v14.242c0,29.193,17.639,55.16,43.898,64.621
			l29.491,10.626l29.491-10.626c26.258-9.462,43.897-35.428,43.897-64.621v-14.242C154.646,150.498,135.584,132.338,112.071,132.338
			z"/>
		<g>
			<ellipse fill-rule="evenodd" clip-rule="evenodd" fill="#34A836" cx="108.695" cy="184.525" rx="15.701" ry="16.513"/>
			<ellipse fill-rule="evenodd" clip-rule="evenodd" fill="#34A836" cx="108.695" cy="184.525" rx="6.533" ry="6.872"/>
		</g>
		<g>
			<ellipse fill-rule="evenodd" clip-rule="evenodd" fill="#34A836" cx="57.043" cy="184.525" rx="15.701" ry="16.513"/>
			<ellipse fill-rule="evenodd" clip-rule="evenodd" fill="#34A836" cx="57.043" cy="184.525" rx="6.533" ry="6.872"/>
		</g>
		<polygon fill="#34A836" points="81.623,194.028 70.662,205.556 81.623,225.249 92.584,205.556 		"/>
		<path fill-rule="evenodd" clip-rule="evenodd" fill="#34A836" d="M161.884,338L161.884,338c-19.111,0-34.604-16.294-34.604-36.395
			v-47.878h34.604V338z"/>
	</g>
</g>
</svg>
