<?xml version="1.0" encoding="utf-8"?>
<!-- Generator: Adobe Illustrator 17.0.0, SVG Export Plug-In . SVG Version: 6.00 Build 0)  -->
<!DOCTYPE svg PUBLIC "-//W3C//DTD SVG 1.1//EN" "http://www.w3.org/Graphics/SVG/1.1/DTD/svg11.dtd">
<svg version="1.1" id="Capa_1" xmlns="http://www.w3.org/2000/svg" xmlns:xlink="http://www.w3.org/1999/xlink" x="0px" y="0px"
	 width="187px" height="338px" viewBox="0 0 187 338" enable-background="new 0 0 187 338" xml:space="preserve">
<g>
	<g>
		<polygon fill="#2D3A46" points="118.889,91.432 142.444,126.192 186.673,134.241 162.697,98.651 		"/>
		<polygon fill="#2D3A46" points="118.889,91.432 118.232,92.041 186.016,134.85 186.673,134.241 		"/>
		<polygon fill="#1D262D" points="118.232,92.041 141.787,126.801 186.016,134.85 162.039,99.26 		"/>
		<path fill="#2D3A46" d="M168.206,124.082l-4.904,7.426l-6.565,9.937l-32.815-21.084c0.274-0.584,4.741-6.401,8.311-11.013
			c2.435-3.132,4.448-5.707,4.448-5.707C151.377,104.035,161.91,110.808,168.206,124.082z"/>
		<path fill="#425766" d="M143.67,104.373c-2.215-0.42-4.543-0.666-6.989-0.732c0,0-2.013,2.575-4.448,5.707
			c-3.569,4.612-8.037,10.429-8.311,11.013l5.406,3.474C133.901,117.294,138.542,110.531,143.67,104.373z"/>
		<path opacity="0.49" fill="#798B9C" d="M168.206,124.082l-4.904,7.426c-0.019-0.056-0.038-0.119-0.056-0.174
			c-6.22-20.706-30.971-21.677-30.971-21.677l-0.042-0.31c2.435-3.132,4.448-5.707,4.448-5.707
			C151.377,104.035,161.91,110.808,168.206,124.082z"/>
	</g>
	<g>
		<path fill="#7BBA74" d="M161.803,334.078h-60.74c-55.018,0-99.619-46.909-99.619-104.774v-64.713
			c0-24.876,19.174-45.042,42.826-45.042h74.707c23.652,0,42.826,20.166,42.826,45.042V334.078z"/>
		<path fill-rule="evenodd" clip-rule="evenodd" fill="#FFFFFF" d="M112.071,132.338c-12.126,0-23.06,4.838-30.814,12.588
			c-7.754-7.75-18.688-12.588-30.814-12.588c-23.513,0-42.575,18.159-42.575,40.56v14.242c0,29.193,17.639,55.16,43.898,64.621
			l29.491,10.626l29.491-10.626c26.258-9.462,43.897-35.428,43.897-64.621v-14.242C154.646,150.498,135.584,132.338,112.071,132.338
			z"/>
		<g>
			<ellipse fill-rule="evenodd" clip-rule="evenodd" fill="#34A836" cx="108.695" cy="184.525" rx="15.701" ry="16.513"/>
			<ellipse fill-rule="evenodd" clip-rule="evenodd" fill="#34A836" cx="108.695" cy="184.525" rx="6.533" ry="6.872"/>
		</g>
		<g>
			<ellipse fill-rule="evenodd" clip-rule="evenodd" fill="#34A836" cx="57.043" cy="184.525" rx="15.701" ry="16.513"/>
			<ellipse fill-rule="evenodd" clip-rule="evenodd" fill="#34A836" cx="57.043" cy="184.525" rx="6.533" ry="6.872"/>
		</g>
		<polygon fill="#34A836" points="81.623,194.028 70.662,205.556 81.623,225.249 92.584,205.556 		"/>
		<path fill-rule="evenodd" clip-rule="evenodd" fill="#34A836" d="M161.884,338L161.884,338c-19.111,0-34.604-16.294-34.604-36.395
			v-47.878h34.604V338z"/>
	</g>
</g>
<g>
	<g>
		<g>
			<path fill="#F6FBFD" d="M46.154,203.502c-3.698,0.307-7.3,0.439-10.753,0.439c-14.226,0-25.887-2.211-30.899-3.336
				c-1.291-0.29-2.692,0.243-2.715,1.031c-0.182,6.07-0.197,27.056,7.765,36.089c2.499,2.836,6.668,5.914,12.009,8.902
				c-4.138-7.813-6.786-15.911-7.792-19.253c-0.145-0.479-0.259-0.86-0.334-1.127c-0.022-0.075-0.04-0.14-0.057-0.197
				c-0.044-0.172-0.07-0.262-0.07-0.262c-0.782-2.901-1.463-6.547-1.893-11.123c-0.25-2.657-0.369-5.181-0.417-7.36
				c6.474,0.984,14.93,1.869,24.404,1.869c4.089,0,8.157-0.167,12.088-0.493c12.145-1.009,18.264-1.909,22.731-2.567
				c4.274-0.631,6.228-0.917,11.289-0.917v-5.234C69.447,199.963,70.278,201.498,46.154,203.502z"/>
			<path fill="#E9F5F7" d="M161.231,201.635c-0.024-0.788-1.424-1.321-2.715-1.031c-5.012,1.125-16.673,3.336-30.903,3.336
				c-3.448,0-7.054-0.132-10.748-0.439c-24.123-2.004-23.293-3.539-35.355-3.539v5.234c5.06,0,7.015,0.287,11.289,0.917
				c4.467,0.658,10.586,1.558,22.727,2.567c3.936,0.326,7.999,0.493,12.088,0.493c9.479,0,17.934-0.885,24.409-1.869
				c-0.048,2.153-0.163,4.648-0.409,7.28c-0.395,4.282-1.015,7.754-1.735,10.562c-0.009,0.032-0.013,0.067-0.022,0.1
				c-0.646,3.008-2.982,12.631-8.363,21.359c5.324-2.983,9.483-6.054,11.974-8.883C161.428,228.691,161.413,207.705,161.231,201.635
				z"/>
		</g>
		<g>
			<path fill="#708691" d="M150.127,238.166c-0.033,0-0.066-0.004-0.098-0.013c-0.109-0.031-0.153-0.105-0.099-0.167
				c0.151-0.173,0.303-0.361,0.45-0.559c0.048-0.064,0.177-0.092,0.288-0.066c0.112,0.027,0.164,0.1,0.117,0.163
				c-0.151,0.203-0.307,0.396-0.462,0.573C150.285,238.14,150.207,238.166,150.127,238.166z"/>
			<path fill="#708691" d="M151.328,236.459c-0.023,0-0.046-0.002-0.069-0.006c-0.115-0.021-0.178-0.092-0.14-0.157
				c0.207-0.358,0.413-0.748,0.611-1.162c0.032-0.066,0.151-0.105,0.269-0.088c0.117,0.018,0.186,0.087,0.154,0.153
				c-0.2,0.418-0.408,0.813-0.618,1.174C151.506,236.425,151.42,236.459,151.328,236.459z M152.465,234.109
				c-0.016,0-0.033-0.001-0.05-0.003c-0.118-0.016-0.192-0.083-0.164-0.15c0.155-0.378,0.308-0.778,0.454-1.188
				c0.024-0.067,0.138-0.111,0.259-0.097c0.119,0.014,0.196,0.079,0.172,0.147c-0.147,0.412-0.301,0.814-0.457,1.195
				C152.656,234.07,152.565,234.109,152.465,234.109z M153.325,231.721c-0.013,0-0.026-0.001-0.039-0.002
				c-0.119-0.012-0.199-0.077-0.177-0.145c0.124-0.391,0.244-0.791,0.361-1.199c0.019-0.068,0.134-0.116,0.252-0.103
				c0.12,0.011,0.201,0.075,0.181,0.143c-0.116,0.409-0.237,0.811-0.362,1.204C153.521,231.678,153.429,231.721,153.325,231.721z
				 M154.012,229.315c-0.011,0-0.021,0-0.032-0.001c-0.12-0.01-0.203-0.073-0.186-0.141c0.102-0.396,0.201-0.799,0.296-1.205
				c0.016-0.068,0.128-0.116,0.247-0.107c0.12,0.009,0.205,0.072,0.189,0.14c-0.096,0.408-0.195,0.811-0.297,1.209
				C154.213,229.27,154.12,229.315,154.012,229.315z M154.58,226.899c-0.009,0-0.018,0-0.027-0.001
				c-0.12-0.008-0.206-0.07-0.191-0.139c0.086-0.4,0.168-0.803,0.248-1.209c0.013-0.068,0.122-0.118,0.243-0.11
				c0.121,0.008,0.207,0.069,0.194,0.138c-0.08,0.407-0.163,0.811-0.249,1.212C154.785,226.852,154.69,226.899,154.58,226.899z
				 M155.058,224.477c-0.008,0-0.015,0-0.023-0.001c-0.121-0.007-0.208-0.068-0.196-0.137c0.073-0.402,0.143-0.805,0.21-1.21
				c0.012-0.069,0.127-0.119,0.239-0.112c0.121,0.006,0.209,0.067,0.198,0.136c-0.067,0.405-0.138,0.809-0.211,1.212
				C155.265,224.429,155.169,224.477,155.058,224.477z M155.464,222.052c-0.006,0-0.013,0-0.02,0
				c-0.121-0.006-0.21-0.066-0.199-0.135c0.063-0.406,0.123-0.812,0.181-1.216c0.009-0.069,0.118-0.118,0.236-0.114
				c0.121,0.006,0.211,0.066,0.201,0.134c-0.058,0.405-0.118,0.811-0.181,1.218C155.673,222.003,155.577,222.052,155.464,222.052z
				 M155.812,219.62c-0.006,0-0.011,0-0.017,0c-0.121-0.005-0.212-0.065-0.203-0.134c0.054-0.407,0.105-0.812,0.155-1.215
				c0.009-0.069,0.105-0.118,0.235-0.116c0.121,0.005,0.212,0.064,0.204,0.133c-0.049,0.403-0.101,0.809-0.155,1.216
				C156.022,219.57,155.926,219.62,155.812,219.62z M156.11,217.189c-0.005,0-0.009,0-0.014,0c-0.121-0.004-0.213-0.064-0.205-0.132
				c0.046-0.409,0.09-0.815,0.132-1.216c0.007-0.069,0.114-0.121,0.232-0.117c0.121,0.004,0.214,0.063,0.206,0.132
				c-0.042,0.401-0.086,0.807-0.132,1.217C156.322,217.138,156.225,217.189,156.11,217.189z M156.363,214.756
				c-0.004,0-0.008,0-0.012,0c-0.121-0.004-0.214-0.062-0.207-0.131c0.039-0.413,0.077-0.819,0.112-1.217
				c0.006-0.069,0.097-0.121,0.23-0.118c0.121,0.004,0.214,0.062,0.208,0.131c-0.035,0.399-0.073,0.805-0.112,1.218
				C156.575,214.704,156.479,214.756,156.363,214.756z M156.578,212.321c-0.003,0-0.006,0-0.01,0
				c-0.121-0.003-0.215-0.061-0.209-0.13c0.033-0.417,0.064-0.823,0.093-1.218c0.005-0.069,0.106-0.127,0.229-0.119
				c0.121,0.003,0.215,0.061,0.211,0.13c-0.029,0.395-0.061,0.801-0.094,1.219C156.792,212.269,156.694,212.321,156.578,212.321z
				 M156.755,209.885c-0.003,0-0.006,0-0.008,0c-0.121-0.003-0.216-0.06-0.211-0.129c0.028-0.425,0.053-0.832,0.076-1.218
				c0.004-0.069,0.089-0.124,0.227-0.12c0.121,0.002,0.216,0.06,0.212,0.129c-0.022,0.386-0.048,0.793-0.075,1.219
				C156.97,209.832,156.873,209.885,156.755,209.885z M156.898,207.447c-0.002,0-0.004,0-0.006,0
				c-0.121-0.002-0.217-0.059-0.213-0.128c0.023-0.451,0.042-0.859,0.057-1.219c0.003-0.069,0.121-0.119,0.225-0.122
				c0.121,0.002,0.217,0.059,0.214,0.128c-0.015,0.36-0.034,0.769-0.057,1.22C157.114,207.394,157.016,207.447,156.898,207.447z"/>
			<path fill="#708691" d="M156.999,205.054c-0.001,0-0.003,0-0.004,0c-0.121-0.001-0.217-0.058-0.215-0.127
				c0.006-0.191,0.011-0.341,0.014-0.445c-0.173,0.031-0.425,0.073-0.77,0.125c-0.119,0.018-0.238-0.022-0.269-0.089
				c-0.031-0.067,0.039-0.135,0.156-0.152c0.722-0.108,1.023-0.174,1.026-0.175c0.067-0.015,0.144-0.01,0.205,0.014
				c0.06,0.024,0.096,0.063,0.095,0.104c0,0-0.005,0.219-0.018,0.623C157.217,204.999,157.118,205.054,156.999,205.054z"/>
			<path fill="#708691" d="M123.479,206.465c-0.001,0-0.002,0-0.003,0c-0.734-0.005-1.463-0.015-2.186-0.031
				c-0.121-0.003-0.216-0.06-0.212-0.129c0.005-0.069,0.113-0.122,0.228-0.12c0.72,0.015,1.445,0.025,2.175,0.031
				c0.121,0.001,0.218,0.057,0.217,0.126C123.698,206.41,123.6,206.465,123.479,206.465z M125.66,206.464
				c-0.12,0-0.218-0.055-0.22-0.123c-0.002-0.069,0.095-0.125,0.217-0.126c0.721-0.005,1.445-0.016,2.174-0.033
				c0.126-0.002,0.224,0.051,0.229,0.119c0.005,0.069-0.09,0.127-0.211,0.129c-0.724,0.017-1.46,0.028-2.186,0.033
				C125.662,206.464,125.661,206.464,125.66,206.464z M33.306,206.391L33.306,206.391c-0.74,0-1.468-0.006-2.186-0.015
				c-0.121-0.002-0.217-0.059-0.214-0.128c0.003-0.069,0.097-0.122,0.225-0.122c0.714,0.009,1.44,0.014,2.176,0.015
				c0.121,0,0.22,0.056,0.219,0.125C33.526,206.335,33.428,206.391,33.306,206.391z M35.487,206.379
				c-0.119,0-0.217-0.054-0.22-0.122c-0.002-0.069,0.094-0.126,0.215-0.127c0.716-0.008,1.441-0.021,2.175-0.039
				c0.111-0.001,0.223,0.05,0.229,0.119c0.005,0.069-0.089,0.127-0.21,0.13c-0.736,0.018-1.465,0.031-2.184,0.039
				C35.49,206.379,35.488,206.379,35.487,206.379z M119.121,206.373c-0.005,0-0.009,0-0.014,0c-0.733-0.025-1.46-0.055-2.18-0.09
				c-0.121-0.006-0.211-0.066-0.2-0.135c0.01-0.069,0.12-0.12,0.237-0.114c0.717,0.034,1.441,0.064,2.17,0.089
				c0.121,0.004,0.213,0.063,0.206,0.132C119.333,206.322,119.236,206.373,119.121,206.373z M130.017,206.366
				c-0.115,0-0.212-0.051-0.219-0.117c-0.007-0.069,0.085-0.128,0.206-0.132c0.744-0.025,1.469-0.051,2.175-0.078
				c0.12,0,0.226,0.047,0.234,0.116c0.008,0.069-0.084,0.128-0.205,0.133c-0.707,0.026-1.433,0.052-2.178,0.078
				C130.026,206.366,130.022,206.366,130.017,206.366z M28.946,206.334c-0.003,0-0.007,0-0.01,0
				c-0.741-0.018-1.469-0.041-2.182-0.068c-0.121-0.005-0.213-0.064-0.205-0.133c0.008-0.069,0.109-0.118,0.234-0.116
				c0.71,0.027,1.435,0.049,2.173,0.068c0.121,0.003,0.215,0.061,0.21,0.13C29.16,206.282,29.063,206.334,28.946,206.334z
				 M39.844,206.274c-0.115,0-0.211-0.051-0.219-0.117c-0.008-0.069,0.084-0.128,0.205-0.132c0.717-0.026,1.44-0.057,2.17-0.093
				c0.119-0.007,0.227,0.045,0.238,0.113c0.011,0.069-0.079,0.129-0.2,0.135c-0.733,0.036-1.46,0.067-2.18,0.094
				C39.854,206.274,39.849,206.274,39.844,206.274z M134.369,206.203c-0.114,0-0.21-0.05-0.219-0.116
				c-0.009-0.069,0.082-0.128,0.203-0.133c0.747-0.031,1.471-0.062,2.173-0.093c0.113-0.004,0.226,0.046,0.236,0.114
				c0.01,0.069-0.081,0.129-0.202,0.134c-0.703,0.032-1.428,0.063-2.176,0.093C134.38,206.203,134.375,206.203,134.369,206.203z
				 M24.593,206.172c-0.006,0-0.013,0-0.019,0c-0.743-0.037-1.468-0.077-2.175-0.121c-0.121-0.007-0.208-0.069-0.195-0.137
				c0.013-0.068,0.119-0.119,0.242-0.11c0.704,0.043,1.426,0.084,2.166,0.12c0.121,0.006,0.21,0.066,0.2,0.135
				C24.802,206.124,24.706,206.172,24.593,206.172z M114.775,206.166c-0.008,0-0.016,0-0.024-0.001
				c-0.731-0.044-1.455-0.092-2.171-0.144c-0.12-0.009-0.205-0.071-0.19-0.139c0.015-0.068,0.127-0.115,0.246-0.108
				c0.713,0.052,1.434,0.1,2.162,0.144c0.12,0.007,0.208,0.069,0.195,0.137C114.981,206.118,114.885,206.166,114.775,206.166z
				 M44.189,206.059c-0.111,0-0.206-0.047-0.218-0.111c-0.013-0.069,0.074-0.13,0.194-0.138c0.715-0.044,1.435-0.094,2.16-0.149
				c0.12-0.008,0.231,0.039,0.247,0.107c0.016,0.068-0.068,0.131-0.189,0.14c-0.729,0.055-1.452,0.105-2.17,0.149
				C44.205,206.059,44.197,206.059,44.189,206.059z M138.717,206.007c-0.112,0-0.208-0.049-0.218-0.114
				c-0.011-0.068,0.079-0.129,0.2-0.135c0.751-0.037,1.474-0.075,2.169-0.112c0.121-0.007,0.228,0.044,0.24,0.112
				c0.012,0.069-0.077,0.129-0.198,0.136c-0.697,0.038-1.421,0.076-2.173,0.113C138.729,206.007,138.723,206.007,138.717,206.007z
				 M20.257,205.906c-0.009,0-0.019,0-0.029-0.001c-0.747-0.055-1.469-0.113-2.164-0.174c-0.12-0.01-0.202-0.074-0.184-0.142
				c0.018-0.068,0.13-0.116,0.25-0.104c0.693,0.06,1.412,0.118,2.155,0.173c0.12,0.009,0.205,0.071,0.189,0.14
				C20.46,205.86,20.366,205.906,20.257,205.906z M110.448,205.853c-0.011,0-0.021,0-0.033-0.001
				c-0.728-0.061-1.448-0.126-2.159-0.193c-0.12-0.011-0.201-0.076-0.181-0.143c0.02-0.068,0.135-0.114,0.253-0.102
				c0.708,0.067,1.425,0.131,2.151,0.192c0.12,0.01,0.203,0.073,0.185,0.142C110.649,205.808,110.555,205.853,110.448,205.853z
				 M143.057,205.771c-0.111,0-0.206-0.047-0.218-0.111c-0.013-0.068,0.075-0.13,0.195-0.137c0.759-0.046,1.48-0.091,2.164-0.137
				c0.124-0.009,0.23,0.041,0.244,0.109c0.014,0.068-0.072,0.13-0.193,0.138c-0.686,0.046-1.409,0.092-2.17,0.137
				C143.073,205.771,143.065,205.771,143.057,205.771z M48.513,205.733c-0.106,0-0.2-0.044-0.217-0.105
				c-0.019-0.068,0.063-0.132,0.183-0.143c0.711-0.063,1.427-0.132,2.147-0.205c0.118-0.012,0.234,0.033,0.255,0.101
				c0.021,0.068-0.058,0.133-0.177,0.145c-0.723,0.074-1.442,0.143-2.157,0.206C48.536,205.732,48.525,205.733,48.513,205.733z
				 M15.945,205.532c-0.013,0-0.025-0.001-0.038-0.002c-0.755-0.075-1.472-0.152-2.149-0.228c-0.119-0.013-0.196-0.079-0.172-0.147
				c0.024-0.068,0.14-0.112,0.258-0.098c0.674,0.076,1.387,0.152,2.139,0.227c0.119,0.012,0.199,0.077,0.178,0.144
				C16.142,205.49,16.049,205.532,15.945,205.532z M147.388,205.481c-0.109,0-0.203-0.046-0.217-0.108
				c-0.015-0.068,0.069-0.131,0.189-0.14c0.774-0.058,1.491-0.115,2.156-0.171c0.117-0.009,0.232,0.037,0.249,0.105
				c0.018,0.068-0.065,0.132-0.185,0.142c-0.666,0.056-1.386,0.114-2.163,0.172C147.407,205.481,147.398,205.481,147.388,205.481z
				 M106.144,205.446c-0.013,0-0.027-0.001-0.04-0.002c-0.726-0.076-1.441-0.155-2.146-0.235c-0.119-0.014-0.196-0.079-0.172-0.147
				c0.024-0.068,0.142-0.111,0.259-0.098c0.703,0.08,1.416,0.159,2.139,0.235c0.119,0.013,0.198,0.078,0.176,0.145
				C106.34,205.404,106.248,205.446,106.144,205.446z M52.808,205.293c-0.102,0-0.194-0.041-0.215-0.1
				c-0.024-0.067,0.053-0.133,0.172-0.147l2.136-0.246c0.119-0.014,0.235,0.03,0.259,0.097c0.024,0.067-0.052,0.133-0.171,0.147
				l-2.137,0.247C52.837,205.292,52.822,205.293,52.808,205.293z M151.7,205.115c-0.105,0-0.198-0.043-0.216-0.104
				c-0.02-0.068,0.06-0.132,0.18-0.144c0.761-0.074,1.479-0.15,2.136-0.226c0.116-0.013,0.235,0.03,0.259,0.097
				c0.024,0.067-0.053,0.133-0.172,0.147c-0.661,0.077-1.384,0.153-2.149,0.227C151.725,205.114,151.713,205.115,151.7,205.115z
				 M11.667,205.048c-0.016,0-0.032-0.001-0.048-0.003c-0.727-0.093-1.442-0.19-2.128-0.289c-0.118-0.017-0.189-0.085-0.159-0.152
				c0.03-0.067,0.149-0.107,0.267-0.09c0.681,0.098,1.393,0.195,2.116,0.287c0.118,0.015,0.193,0.082,0.166,0.149
				C11.858,205.008,11.767,205.048,11.667,205.048z M101.867,204.957c-0.015,0-0.031-0.001-0.047-0.003
				c-0.724-0.089-1.434-0.18-2.131-0.271c-0.118-0.015-0.192-0.082-0.165-0.149c0.027-0.067,0.145-0.109,0.263-0.093
				c0.695,0.091,1.404,0.181,2.126,0.27c0.118,0.015,0.193,0.081,0.168,0.148C102.059,204.917,101.968,204.957,101.867,204.957z
				 M57.079,204.798c-0.102,0-0.193-0.041-0.215-0.099c-0.024-0.067,0.052-0.133,0.171-0.147l2.133-0.25
				c0.117-0.014,0.235,0.029,0.26,0.097c0.025,0.067-0.052,0.133-0.171,0.147l-2.133,0.25
				C57.108,204.797,57.093,204.798,57.079,204.798z M97.614,204.402c-0.017,0-0.034-0.001-0.052-0.004
				c-0.723-0.099-1.43-0.199-2.12-0.297c-0.118-0.017-0.189-0.084-0.16-0.151c0.03-0.067,0.147-0.108,0.267-0.091
				c0.688,0.098,1.395,0.197,2.116,0.296c0.118,0.016,0.19,0.083,0.162,0.15C97.803,204.364,97.713,204.402,97.614,204.402z
				 M61.344,204.296c-0.102,0-0.193-0.04-0.215-0.099c-0.025-0.067,0.051-0.133,0.17-0.147l2.13-0.255
				c0.121-0.014,0.235,0.029,0.26,0.096c0.025,0.067-0.051,0.134-0.169,0.148l-2.131,0.255
				C61.374,204.295,61.359,204.296,61.344,204.296z M93.381,203.801c-0.018,0-0.036-0.001-0.054-0.004l-2.113-0.309
				c-0.118-0.017-0.188-0.085-0.158-0.152c0.03-0.066,0.149-0.107,0.268-0.09l2.112,0.309c0.118,0.017,0.188,0.085,0.158,0.152
				C93.569,203.763,93.48,203.801,93.381,203.801z M65.603,203.784c-0.101,0-0.193-0.04-0.214-0.099
				c-0.025-0.067,0.05-0.133,0.169-0.148l2.128-0.259c0.118-0.015,0.235,0.028,0.261,0.096c0.026,0.067-0.05,0.134-0.169,0.148
				l-2.128,0.259C65.634,203.784,65.618,203.784,65.603,203.784z M69.858,203.265c-0.101,0-0.192-0.04-0.214-0.098
				c-0.026-0.067,0.05-0.134,0.168-0.148l2.127-0.26c0.118-0.015,0.235,0.028,0.261,0.096c0.026,0.067-0.05,0.133-0.169,0.148
				l-2.126,0.26C69.889,203.264,69.874,203.265,69.858,203.265z M89.154,203.186c-0.018,0-0.036-0.001-0.054-0.004
				c-0.74-0.106-1.446-0.204-2.116-0.293c-0.118-0.016-0.192-0.083-0.164-0.15c0.028-0.067,0.142-0.108,0.264-0.093
				c0.672,0.089,1.38,0.188,2.123,0.294c0.118,0.017,0.189,0.084,0.16,0.151C89.342,203.148,89.252,203.186,89.154,203.186z
				 M74.113,202.753c-0.103,0-0.194-0.041-0.215-0.1c-0.024-0.067,0.053-0.133,0.172-0.147c0.878-0.1,1.561-0.17,2.147-0.219
				c0.122-0.009,0.232,0.037,0.25,0.105c0.018,0.068-0.065,0.132-0.185,0.142c-0.579,0.049-1.254,0.118-2.126,0.217
				C74.141,202.752,74.127,202.753,74.113,202.753z M84.903,202.629c-0.014,0-0.028-0.001-0.042-0.002
				c-0.823-0.091-1.522-0.154-2.136-0.191c-0.121-0.007-0.208-0.069-0.195-0.137c0.013-0.069,0.124-0.117,0.242-0.111
				c0.626,0.038,1.337,0.102,2.173,0.195c0.119,0.013,0.197,0.079,0.173,0.146C85.097,202.588,85.005,202.629,84.903,202.629z
				 M78.405,202.416c-0.117,0-0.214-0.052-0.219-0.119c-0.006-0.069,0.088-0.127,0.209-0.13c0.638-0.016,1.333-0.02,2.179-0.021h0
				c0.121,0,0.219,0.056,0.22,0.124s-0.098,0.125-0.219,0.125c-0.84,0.001-1.529,0.005-2.16,0.021
				C78.412,202.416,78.408,202.416,78.405,202.416z"/>
			<path fill="#708691" d="M6.335,204.86c-0.12,0-0.218-0.055-0.22-0.123c-0.009-0.405-0.011-0.624-0.011-0.624
				c0-0.04,0.034-0.078,0.092-0.102c0.057-0.023,0.132-0.03,0.199-0.017c0.003,0,0.361,0.07,1.038,0.183
				c0.116,0.019,0.183,0.089,0.149,0.155c-0.034,0.066-0.156,0.105-0.273,0.084c-0.33-0.055-0.586-0.1-0.763-0.132
				c0.002,0.105,0.004,0.255,0.009,0.449c0.001,0.069-0.095,0.125-0.217,0.126C6.337,204.86,6.336,204.86,6.335,204.86z"/>
			<path fill="#708691" d="M11.976,235.024c-0.097,0-0.186-0.037-0.212-0.092c-0.189-0.402-0.371-0.813-0.548-1.231
				c-0.028-0.067,0.045-0.134,0.163-0.15c0.118-0.016,0.237,0.025,0.265,0.092c0.175,0.416,0.357,0.824,0.545,1.224
				c0.031,0.066-0.039,0.135-0.156,0.153C12.014,235.022,11.995,235.024,11.976,235.024z M10.934,232.561
				c-0.101,0-0.192-0.04-0.214-0.098c-0.156-0.409-0.307-0.823-0.453-1.243c-0.023-0.067,0.054-0.133,0.173-0.146
				c0.119-0.014,0.234,0.03,0.258,0.098c0.145,0.418,0.295,0.831,0.451,1.238c0.026,0.067-0.05,0.134-0.168,0.148
				C10.965,232.56,10.949,232.561,10.934,232.561z M10.069,230.077c-0.104,0-0.197-0.042-0.216-0.102
				c-0.131-0.413-0.258-0.83-0.38-1.25c-0.02-0.068,0.061-0.132,0.181-0.143c0.122-0.013,0.233,0.035,0.252,0.103
				c0.122,0.418,0.248,0.834,0.379,1.246c0.021,0.068-0.058,0.133-0.177,0.145C10.095,230.076,10.082,230.077,10.069,230.077z
				 M9.339,227.578c-0.107,0-0.2-0.044-0.217-0.106c-0.112-0.416-0.219-0.835-0.322-1.255c-0.017-0.068,0.067-0.131,0.187-0.141
				c0.121-0.011,0.231,0.038,0.248,0.106c0.103,0.419,0.21,0.836,0.321,1.252c0.018,0.068-0.064,0.132-0.184,0.142
				C9.362,227.578,9.35,227.578,9.339,227.578z M8.721,225.068c-0.109,0-0.203-0.046-0.218-0.109
				c-0.095-0.419-0.186-0.839-0.274-1.258c-0.014-0.068,0.072-0.13,0.192-0.138c0.12-0.009,0.23,0.041,0.244,0.109
				c0.088,0.419,0.179,0.837,0.274,1.256c0.015,0.068-0.069,0.131-0.19,0.14C8.74,225.068,8.73,225.068,8.721,225.068z
				 M8.194,222.554c-0.111,0-0.206-0.047-0.218-0.111c-0.081-0.421-0.159-0.842-0.233-1.261c-0.012-0.069,0.076-0.13,0.196-0.137
				c0.125-0.006,0.229,0.043,0.241,0.111c0.074,0.418,0.152,0.838,0.233,1.258c0.013,0.069-0.074,0.13-0.194,0.138
				C8.21,222.554,8.202,222.554,8.194,222.554z M7.747,220.034c-0.112,0-0.208-0.048-0.219-0.113
				c-0.069-0.424-0.135-0.845-0.198-1.262c-0.01-0.069,0.079-0.129,0.2-0.135c0.122-0.007,0.227,0.045,0.237,0.114
				c0.063,0.417,0.128,0.838,0.198,1.26c0.011,0.069-0.078,0.129-0.198,0.136C7.76,220.034,7.753,220.034,7.747,220.034z
				 M7.367,217.51c-0.114,0-0.21-0.05-0.219-0.115c-0.058-0.426-0.114-0.848-0.166-1.264c-0.009-0.069,0.082-0.128,0.203-0.133
				c0.125-0.008,0.226,0.047,0.235,0.115c0.052,0.416,0.107,0.837,0.166,1.262c0.009,0.068-0.081,0.129-0.202,0.134
				C7.379,217.51,7.373,217.51,7.367,217.51z M7.05,214.984c-0.115,0-0.212-0.051-0.219-0.117c-0.049-0.429-0.095-0.851-0.137-1.265
				c-0.007-0.069,0.085-0.128,0.206-0.132c0.126-0.002,0.225,0.048,0.232,0.117c0.042,0.413,0.088,0.835,0.137,1.263
				c0.008,0.069-0.084,0.128-0.205,0.132C7.06,214.983,7.055,214.984,7.05,214.984z M6.79,212.455c-0.116,0-0.213-0.052-0.219-0.118
				c-0.04-0.434-0.077-0.857-0.11-1.266c-0.006-0.069,0.088-0.127,0.209-0.13c0.123-0.004,0.224,0.05,0.229,0.119
				c0.033,0.409,0.07,0.831,0.11,1.264c0.006,0.069-0.087,0.127-0.208,0.131C6.798,212.455,6.794,212.455,6.79,212.455z
				 M6.583,209.924c-0.117,0-0.214-0.053-0.219-0.12c-0.032-0.443-0.059-0.866-0.084-1.267c-0.004-0.069,0.09-0.126,0.212-0.129
				c0.122-0.008,0.223,0.051,0.227,0.12c0.024,0.401,0.052,0.823,0.084,1.265c0.005,0.069-0.089,0.127-0.211,0.129
				C6.589,209.924,6.586,209.924,6.583,209.924z M6.429,207.391c-0.118,0-0.216-0.054-0.219-0.121
				c-0.023-0.469-0.042-0.893-0.056-1.268c-0.003-0.069,0.094-0.126,0.215-0.127c0.128,0.003,0.222,0.053,0.224,0.122
				c0.014,0.374,0.032,0.798,0.056,1.266c0.003,0.069-0.092,0.126-0.213,0.128C6.434,207.391,6.432,207.391,6.429,207.391z"/>
			<path fill="#708691" d="M12.89,236.812c-0.093,0-0.18-0.034-0.209-0.087c-0.11-0.196-0.217-0.395-0.323-0.597
				c-0.035-0.066,0.031-0.135,0.148-0.155c0.118-0.019,0.239,0.018,0.273,0.084c0.105,0.2,0.212,0.398,0.321,0.593
				c0.037,0.066-0.027,0.136-0.143,0.156C12.934,236.81,12.912,236.812,12.89,236.812z"/>
		</g>
		<g>
			<path fill="#77C8CE" d="M127.612,209.175c-4.089,0-8.152-0.167-12.088-0.493c-12.141-1.009-18.259-1.909-22.727-2.567
				c-4.274-0.631-6.228-0.917-11.289-0.917c0,0,0,0-0.001,0v57.191c0,0,0.001,0,0.001,0c21.822,0,45.317-7.559,59.983-15.781
				c5.381-8.728,7.718-18.351,8.363-21.359c0.009-0.032,0.013-0.067,0.022-0.1c0.72-2.809,1.34-6.281,1.735-10.562
				c0.246-2.632,0.36-5.127,0.409-7.28C145.547,208.29,137.091,209.175,127.612,209.175z"/>
			<path fill="#8DCFD8" d="M70.221,206.114c-4.467,0.658-10.586,1.558-22.731,2.567c-3.931,0.326-7.999,0.493-12.088,0.493
				c-9.474,0-17.93-0.885-24.404-1.869c0.048,2.178,0.167,4.703,0.417,7.36c0.43,4.576,1.111,8.222,1.893,11.123
				c0,0,0.026,0.09,0.07,0.262c0.018,0.057,0.035,0.122,0.057,0.197c0.075,0.267,0.189,0.648,0.334,1.127
				c1.006,3.342,3.655,11.44,7.792,19.253c14.666,8.215,38.143,15.761,59.947,15.761v-57.191
				C76.449,205.197,74.494,205.484,70.221,206.114z"/>
		</g>
		<g opacity="0.2">
			<path fill="#66C3CD" d="M143.772,228.192c-0.692,0.688-1.449,1.309-2.212,1.917c-0.778,0.59-1.56,1.179-2.379,1.711
				c-0.804,0.557-1.638,1.067-2.477,1.57c-0.826,0.527-1.703,0.961-2.556,1.443c-0.853,0.482-1.754,0.866-2.63,1.304
				c-0.873,0.445-1.788,0.794-2.685,1.187c-0.895,0.399-1.807,0.753-2.73,1.081c-0.923,0.326-1.826,0.711-2.766,0.988l-2.801,0.885
				c-0.935,0.294-1.893,0.499-2.839,0.752c-0.951,0.233-1.892,0.51-2.856,0.684l-2.879,0.585c-0.956,0.216-1.928,0.339-2.895,0.491
				l-2.904,0.442c-0.97,0.13-1.946,0.208-2.919,0.314l-2.922,0.298c-0.25,0.025-0.473-0.156-0.498-0.406
				c-0.023-0.227,0.125-0.431,0.339-0.486l0.012-0.003c3.721-0.957,7.436-1.966,11.135-3.019c3.701-1.048,7.38-2.17,11.061-3.285
				c1.832-0.583,3.672-1.144,5.491-1.767c1.83-0.593,3.633-1.256,5.446-1.897l2.695-1.024c0.902-0.335,1.773-0.739,2.662-1.105
				c0.897-0.352,1.737-0.818,2.606-1.229C142.151,229.232,142.932,228.666,143.772,228.192z M143.772,228.192
				c-0.812,0.51-1.575,1.119-2.437,1.553c-0.854,0.445-1.687,0.942-2.571,1.327c-0.877,0.398-1.74,0.835-2.631,1.203l-2.666,1.123
				c-1.8,0.69-3.598,1.389-5.417,2.024c-1.811,0.663-3.641,1.265-5.465,1.889c-1.832,0.598-3.662,1.205-5.508,1.756l-5.537,1.659
				c-3.699,1.082-7.408,2.118-11.138,3.105l-0.147-0.895l2.9-0.277c0.966-0.099,1.936-0.169,2.899-0.291l2.883-0.418
				c0.96-0.144,1.926-0.259,2.875-0.466l2.858-0.56c0.958-0.165,1.892-0.433,2.836-0.658c0.939-0.243,1.891-0.444,2.821-0.722
				l2.795-0.818c0.938-0.255,1.84-0.618,2.763-0.921c0.922-0.306,1.835-0.638,2.73-1.015c0.897-0.37,1.815-0.698,2.689-1.12
				c0.878-0.414,1.781-0.781,2.64-1.235c0.862-0.448,1.75-0.849,2.588-1.343c0.851-0.47,1.698-0.949,2.517-1.474
				c0.835-0.501,1.631-1.06,2.428-1.619C142.266,229.429,143.048,228.846,143.772,228.192z"/>
		</g>
		<path opacity="0.2" fill="#66C3CD" d="M143.772,218.151c0,0-17.743,13.754-49.981,11.06c0,0,9.996-2.173,15.244-2.646
			c5.248-0.473,19.891-7.298,26.24-7.138C141.624,219.588,143.772,218.151,143.772,218.151z"/>
		<path opacity="0.2" fill="#66C3CD" d="M152.021,207.305c0,0-4.75,9.428-20.994,10.846c0,0-0.5-2.763,7.497-5.423
			C146.521,210.069,152.021,207.305,152.021,207.305z"/>
		<path opacity="0.2" fill="#66C3CD" d="M83.795,208.367c0,0,13.995,1.418,22.991,2.694c8.997,1.276,22.242,0.567,22.242,0.567
			s-16.337,3.225-28.739,0.196S83.795,208.367,83.795,208.367z"/>
		<path opacity="0.2" fill="#66C3CD" d="M34.563,243.653c0,0,21.667,8.366,46.945,8.366s43.984-10.472,43.984-10.472
			s-20.03,6.785-43.984,6.785S34.563,243.653,34.563,243.653z"/>
		<path opacity="0.2" fill="#66C3CD" d="M19.246,228.192c0,0,12.995,12.93,43.484,15.199
			C62.73,243.391,27.743,234.404,19.246,228.192z"/>
		<g opacity="0.2">
			<path fill="#66C3CD" d="M19.246,218.151c0.887,0.628,1.813,1.196,2.758,1.731c0.941,0.54,1.904,1.043,2.877,1.519
				c0.978,0.47,1.954,0.94,2.96,1.347c0.991,0.44,2.001,0.832,3.02,1.199c1.007,0.4,2.032,0.749,3.064,1.076l1.543,0.507
				l1.564,0.436c1.048,0.271,2.078,0.61,3.142,0.816l3.17,0.697l3.202,0.531c1.063,0.202,2.138,0.326,3.213,0.443
				c1.075,0.116,2.147,0.265,3.225,0.354l3.239,0.189l1.619,0.094l1.623,0.001l3.245,0.002c1.082,0.012,2.16-0.104,3.241-0.15
				l3.239-0.185l-0.059,0.898l-3.139-0.655c-1.049-0.206-2.095-0.438-3.147-0.623l-3.155-0.571c-1.051-0.21-2.106-0.34-3.161-0.484
				l-3.187-0.443c-1.067-0.156-2.156-0.465-3.18-0.753c-2.071-0.607-4.092-1.33-6.113-2.045c-2.021-0.715-4.035-1.442-6.064-2.116
				c-2.029-0.672-4.07-1.311-6.144-1.8c-1.037-0.238-2.083-0.449-3.137-0.535c-1.046-0.077-2.14-0.067-3.204-0.104l-1.61-0.136
				c-0.534-0.06-1.064-0.158-1.595-0.235C21.247,218.924,20.183,218.681,19.246,218.151z M19.246,218.151
				c0.954,0.497,2.02,0.701,3.066,0.893c0.531,0.058,1.06,0.137,1.592,0.179l1.597,0.08c1.078,0,2.128-0.047,3.223-0.006
				c1.084,0.052,2.152,0.23,3.211,0.434c2.111,0.443,4.174,1.054,6.225,1.687c2.051,0.637,4.082,1.326,6.115,2.001
				c2.033,0.671,4.063,1.354,6.105,1.949c1.039,0.282,2.018,0.56,3.074,0.709l3.182,0.422c1.069,0.139,2.142,0.265,3.195,0.468
				l3.174,0.554c1.059,0.18,2.108,0.405,3.163,0.605l3.157,0.638l0.008,0.002c0.245,0.05,0.404,0.289,0.355,0.534
				c-0.042,0.207-0.219,0.352-0.421,0.363l-3.27,0.169c-1.09,0.039-2.178,0.149-3.27,0.13l-3.274-0.023l-1.637-0.012l-1.634-0.105
				l-3.267-0.211c-1.087-0.097-2.168-0.254-3.252-0.378c-1.084-0.126-2.168-0.253-3.239-0.471l-3.218-0.598l-3.183-0.764
				c-1.067-0.228-2.1-0.59-3.15-0.883l-1.567-0.469l-1.544-0.54c-1.032-0.351-2.059-0.717-3.062-1.147
				c-1.012-0.404-2.014-0.833-2.995-1.309c-0.995-0.443-1.96-0.949-2.925-1.454c-0.961-0.511-1.908-1.049-2.833-1.622
				C21.02,219.41,20.111,218.809,19.246,218.151z"/>
		</g>
		<path opacity="0.2" fill="#66C3CD" d="M10.997,207.305c0,0,4.75,9.428,20.994,10.846c0,0,0.5-2.763-7.497-5.423
			C16.497,210.069,10.997,207.305,10.997,207.305z"/>
		<path opacity="0.2" fill="#66C3CD" d="M79.223,208.367c0,0-13.995,1.418-22.991,2.694c-8.997,1.276-22.242,0.567-22.242,0.567
			s16.337,3.225,28.739,0.196S79.223,208.367,79.223,208.367z"/>
		<path opacity="0.2" fill="#66C3CD" d="M128.455,231.416c0,0-21.667,5.421-46.945,5.421c-25.278,0-43.984-6.785-43.984-6.785
			s20.03,4.396,43.984,4.396C105.464,234.448,128.455,231.416,128.455,231.416z"/>
		<path fill="#708691" d="M139.296,246.731c-0.023,0-0.046-0.002-0.069-0.006c-0.115-0.022-0.177-0.092-0.139-0.158
			c0.233-0.395,0.46-0.791,0.682-1.187c0.036-0.065,0.161-0.101,0.276-0.081c0.116,0.021,0.18,0.091,0.143,0.156
			c-0.223,0.397-0.451,0.794-0.684,1.19C139.474,246.698,139.388,246.731,139.296,246.731z M23.817,246.731
			c-0.089,0-0.172-0.031-0.205-0.08c-0.25-0.374-0.494-0.751-0.733-1.13c-0.041-0.065,0.019-0.136,0.133-0.159
			c0.113-0.024,0.24,0.01,0.281,0.075c0.238,0.378,0.481,0.753,0.73,1.125c0.043,0.064-0.014,0.136-0.127,0.161
			C23.87,246.728,23.843,246.731,23.817,246.731z M22.367,244.425c-0.092,0-0.177-0.033-0.208-0.085
			c-0.233-0.394-0.46-0.79-0.682-1.188c-0.037-0.065,0.027-0.136,0.143-0.156c0.117-0.021,0.239,0.016,0.276,0.081
			c0.221,0.396,0.447,0.791,0.68,1.184c0.039,0.065-0.023,0.136-0.138,0.158C22.414,244.423,22.39,244.425,22.367,244.425z
			 M140.634,244.352c-0.021,0-0.043-0.002-0.064-0.005c-0.116-0.02-0.181-0.09-0.146-0.156c0.214-0.398,0.423-0.795,0.626-1.193
			c0.033-0.066,0.154-0.105,0.272-0.085c0.116,0.019,0.184,0.088,0.15,0.155c-0.204,0.399-0.414,0.798-0.628,1.196
			C140.815,244.318,140.728,244.352,140.634,244.352z M21.042,242.048c-0.095,0-0.182-0.035-0.21-0.089
			c-0.21-0.4-0.414-0.801-0.613-1.204c-0.033-0.066,0.035-0.135,0.152-0.154c0.118-0.018,0.238,0.02,0.271,0.086
			c0.198,0.401,0.402,0.801,0.611,1.2c0.035,0.066-0.032,0.135-0.148,0.155C21.084,242.046,21.063,242.048,21.042,242.048z
			 M141.863,241.958c-0.019,0-0.039-0.001-0.059-0.005c-0.117-0.018-0.185-0.087-0.153-0.153c0.196-0.401,0.389-0.801,0.576-1.202
			c0.031-0.067,0.15-0.107,0.269-0.089c0.118,0.018,0.187,0.086,0.156,0.152c-0.188,0.401-0.38,0.803-0.577,1.205
			C142.047,241.922,141.959,241.958,141.863,241.958z M19.851,239.641c-0.097,0-0.186-0.037-0.212-0.093
			c-0.188-0.403-0.371-0.807-0.548-1.211c-0.03-0.067,0.042-0.134,0.16-0.151c0.118-0.016,0.237,0.024,0.266,0.091
			c0.177,0.403,0.359,0.805,0.547,1.207c0.031,0.066-0.039,0.135-0.156,0.152C19.889,239.64,19.87,239.641,19.851,239.641z
			 M142.992,239.549c-0.018,0-0.036-0.001-0.054-0.004c-0.118-0.017-0.189-0.085-0.159-0.151c0.181-0.404,0.357-0.807,0.528-1.209
			c0.029-0.067,0.147-0.107,0.265-0.092c0.118,0.016,0.19,0.084,0.162,0.15c-0.172,0.403-0.348,0.807-0.53,1.212
			C143.18,239.512,143.091,239.549,142.992,239.549z M18.785,237.221c-0.099,0-0.19-0.039-0.214-0.096
			c-0.168-0.405-0.332-0.81-0.49-1.215c-0.026-0.067,0.048-0.134,0.167-0.149c0.118-0.014,0.236,0.027,0.262,0.095
			c0.158,0.404,0.321,0.808,0.489,1.212c0.028,0.067-0.045,0.134-0.163,0.15C18.819,237.22,18.802,237.221,18.785,237.221z
			 M144.027,237.126c-0.016,0-0.033-0.001-0.049-0.003c-0.118-0.016-0.192-0.083-0.165-0.149c0.166-0.406,0.326-0.811,0.483-1.215
			c0.026-0.067,0.142-0.109,0.262-0.095c0.118,0.015,0.193,0.081,0.167,0.148c-0.157,0.404-0.318,0.81-0.484,1.217
			C144.218,237.087,144.127,237.126,144.027,237.126z M17.832,234.791c-0.102,0-0.193-0.04-0.215-0.099
			c-0.151-0.409-0.298-0.817-0.44-1.224c-0.023-0.067,0.054-0.133,0.173-0.146c0.119-0.014,0.234,0.03,0.258,0.098
			c0.142,0.406,0.288,0.813,0.438,1.221c0.025,0.067-0.051,0.133-0.17,0.147C17.862,234.791,17.847,234.791,17.832,234.791z
			 M144.973,234.691c-0.015,0-0.03-0.001-0.045-0.003c-0.119-0.014-0.195-0.08-0.17-0.147c0.151-0.409,0.297-0.816,0.44-1.22
			c0.024-0.068,0.141-0.111,0.258-0.098c0.119,0.013,0.196,0.079,0.172,0.146c-0.142,0.406-0.29,0.813-0.441,1.223
			C145.166,234.65,145.074,234.691,144.973,234.691z M16.978,232.345c-0.104,0-0.196-0.042-0.216-0.102
			c-0.135-0.411-0.266-0.821-0.392-1.228c-0.021-0.068,0.059-0.132,0.178-0.144c0.118-0.014,0.233,0.033,0.254,0.101
			c0.126,0.407,0.257,0.816,0.392,1.226c0.022,0.068-0.056,0.133-0.176,0.145C17.005,232.344,16.991,232.345,16.978,232.345z
			 M145.832,232.245c-0.014,0-0.027-0.001-0.041-0.002c-0.119-0.013-0.198-0.078-0.175-0.146c0.137-0.411,0.27-0.819,0.398-1.225
			c0.021-0.068,0.139-0.112,0.255-0.101c0.12,0.012,0.199,0.077,0.178,0.145c-0.128,0.406-0.262,0.816-0.399,1.227
			C146.028,232.203,145.936,232.245,145.832,232.245z M16.217,229.888c-0.106,0-0.199-0.043-0.216-0.104
			c-0.121-0.413-0.237-0.824-0.349-1.232c-0.019-0.068,0.063-0.132,0.183-0.142c0.121-0.01,0.232,0.036,0.251,0.104
			c0.112,0.408,0.228,0.818,0.348,1.23c0.02,0.068-0.061,0.132-0.181,0.143C16.241,229.888,16.229,229.888,16.217,229.888z
			 M146.611,229.791c-0.012,0-0.025-0.001-0.037-0.002c-0.12-0.012-0.2-0.076-0.18-0.144c0.124-0.413,0.244-0.823,0.359-1.229
			c0.019-0.068,0.132-0.115,0.251-0.103c0.12,0.011,0.201,0.075,0.182,0.143c-0.115,0.407-0.235,0.818-0.359,1.231
			C146.808,229.748,146.716,229.791,146.611,229.791z M15.541,227.423c-0.107,0-0.201-0.045-0.217-0.107
			c-0.107-0.415-0.21-0.828-0.308-1.236c-0.016-0.068,0.068-0.131,0.188-0.14c0.12-0.009,0.231,0.038,0.247,0.107
			c0.098,0.408,0.201,0.819,0.307,1.234c0.018,0.068-0.065,0.131-0.186,0.141C15.562,227.423,15.552,227.423,15.541,227.423z
			 M147.31,227.329c-0.011,0-0.022,0-0.033-0.001c-0.12-0.01-0.202-0.074-0.184-0.142c0.112-0.415,0.218-0.826,0.32-1.232
			c0.017-0.068,0.13-0.116,0.248-0.106c0.12,0.01,0.204,0.073,0.187,0.141c-0.103,0.407-0.21,0.819-0.321,1.235
			C147.51,227.285,147.416,227.329,147.31,227.329z M14.946,224.952c-0.109,0-0.204-0.046-0.218-0.109
			c-0.094-0.418-0.183-0.831-0.269-1.239c-0.014-0.068,0.072-0.13,0.192-0.138c0.121-0.009,0.23,0.041,0.244,0.109
			c0.085,0.408,0.175,0.82,0.269,1.237c0.015,0.068-0.07,0.131-0.19,0.139C14.964,224.952,14.955,224.952,14.946,224.952z
			 M147.933,224.86c-0.01,0-0.02,0-0.03-0.001c-0.121-0.009-0.205-0.072-0.188-0.14c0.099-0.417,0.193-0.829,0.283-1.235
			c0.015-0.068,0.126-0.116,0.245-0.108c0.12,0.009,0.205,0.071,0.19,0.139c-0.09,0.407-0.184,0.82-0.284,1.238
			C148.136,224.815,148.042,224.86,147.933,224.86z M14.426,222.475c-0.111,0-0.206-0.047-0.218-0.111
			c-0.082-0.42-0.159-0.834-0.233-1.241c-0.012-0.068,0.075-0.13,0.196-0.137c0.118-0.007,0.228,0.043,0.241,0.111
			c0.073,0.407,0.151,0.82,0.232,1.239c0.013,0.068-0.074,0.13-0.194,0.138C14.442,222.474,14.434,222.475,14.426,222.475z
			 M148.482,222.386c-0.009,0-0.017,0-0.026-0.001c-0.12-0.008-0.207-0.07-0.192-0.138c0.087-0.42,0.169-0.832,0.247-1.238
			c0.013-0.068,0.125-0.116,0.242-0.11c0.12,0.007,0.208,0.069,0.194,0.137c-0.078,0.406-0.16,0.82-0.248,1.24
			C148.687,222.339,148.592,222.386,148.482,222.386z M13.979,219.993c-0.112,0-0.208-0.048-0.219-0.113
			c-0.07-0.423-0.136-0.838-0.197-1.244c-0.011-0.069,0.079-0.129,0.2-0.135c0.12-0.008,0.227,0.045,0.238,0.113
			c0.061,0.405,0.127,0.819,0.197,1.242c0.011,0.069-0.077,0.129-0.198,0.136C13.993,219.993,13.986,219.993,13.979,219.993z
			 M148.959,219.906c-0.008,0-0.015,0-0.022-0.001c-0.121-0.007-0.209-0.068-0.196-0.137c0.075-0.423,0.145-0.836,0.21-1.24
			c0.011-0.069,0.121-0.119,0.239-0.113c0.121,0.006,0.21,0.067,0.199,0.135c-0.065,0.405-0.136,0.819-0.211,1.243
			C149.165,219.858,149.07,219.906,148.959,219.906z M13.603,217.506c-0.114,0-0.21-0.05-0.219-0.115
			c-0.059-0.428-0.113-0.843-0.162-1.246c-0.008-0.069,0.083-0.128,0.204-0.133c0.117-0.005,0.226,0.047,0.234,0.116
			c0.049,0.401,0.103,0.816,0.162,1.243c0.009,0.069-0.081,0.129-0.202,0.134C13.615,217.506,13.609,217.506,13.603,217.506z
			 M149.362,217.422c-0.006,0-0.012,0-0.019,0c-0.121-0.006-0.211-0.066-0.2-0.134c0.063-0.427,0.121-0.842,0.174-1.243
			c0.009-0.069,0.116-0.12,0.235-0.115c0.121,0.005,0.212,0.065,0.203,0.134c-0.054,0.402-0.112,0.817-0.175,1.245
			C149.571,217.373,149.475,217.422,149.362,217.422z M13.297,215.016c-0.115,0-0.212-0.051-0.219-0.117
			c-0.047-0.436-0.089-0.852-0.126-1.247c-0.006-0.069,0.087-0.127,0.208-0.131c0.117-0.007,0.225,0.049,0.231,0.118
			c0.037,0.394,0.078,0.81,0.126,1.245c0.008,0.069-0.085,0.128-0.206,0.132C13.306,215.016,13.301,215.016,13.297,215.016z
			 M149.69,214.934c-0.005,0-0.01,0-0.015,0c-0.121-0.005-0.213-0.064-0.205-0.133c0.051-0.435,0.096-0.85,0.136-1.244
			c0.006-0.069,0.109-0.119,0.232-0.117c0.121,0.004,0.214,0.063,0.207,0.132c-0.04,0.395-0.085,0.811-0.136,1.246
			C149.901,214.883,149.805,214.934,149.69,214.934z M13.064,212.523c-0.117,0-0.214-0.052-0.219-0.119
			c-0.036-0.459-0.064-0.877-0.087-1.249c-0.004-0.069,0.091-0.126,0.212-0.129c0.122-0.008,0.223,0.051,0.227,0.12
			c0.022,0.372,0.051,0.789,0.087,1.247c0.005,0.069-0.089,0.127-0.21,0.13C13.07,212.523,13.067,212.523,13.064,212.523z
			 M149.94,212.442c-0.003,0-0.007,0-0.01,0c-0.121-0.003-0.215-0.062-0.209-0.13c0.038-0.455,0.068-0.872,0.092-1.246
			c0.004-0.069,0.085-0.124,0.228-0.12c0.121,0.002,0.216,0.06,0.211,0.129c-0.024,0.375-0.054,0.792-0.093,1.249
			C150.154,212.39,150.057,212.442,149.94,212.442z M33.116,211.174c-0.008,0-0.015,0-0.022,0h-0.11c-0.121,0-0.22-0.056-0.22-0.125
			c0-0.069,0.098-0.125,0.22-0.125h0.11c0.688,0.002,1.37-0.005,2.08-0.016c0.103-0.003,0.222,0.052,0.226,0.121
			c0.003,0.069-0.092,0.126-0.214,0.128C34.491,211.169,33.794,211.174,33.116,211.174z M30.788,211.154c-0.002,0-0.005,0-0.007,0
			c-0.737-0.013-1.478-0.033-2.201-0.06c-0.121-0.004-0.213-0.064-0.205-0.132c0.008-0.069,0.11-0.12,0.233-0.116
			c0.718,0.026,1.454,0.046,2.187,0.059c0.121,0.002,0.216,0.06,0.212,0.129C31.003,211.101,30.906,211.154,30.788,211.154z
			 M37.373,211.106c-0.116,0-0.213-0.051-0.219-0.118c-0.007-0.069,0.086-0.128,0.207-0.131c0.718-0.023,1.454-0.052,2.185-0.086
			c0.119-0.005,0.227,0.046,0.237,0.114c0.01,0.069-0.08,0.129-0.201,0.134c-0.735,0.034-1.475,0.064-2.197,0.086
			C37.381,211.106,37.377,211.106,37.373,211.106z M26.405,210.995c-0.007,0-0.014,0-0.021-0.001
			c-0.735-0.041-1.472-0.089-2.19-0.143c-0.12-0.009-0.205-0.072-0.189-0.14c0.016-0.068,0.126-0.116,0.247-0.107
			c0.713,0.054,1.444,0.102,2.174,0.142c0.121,0.007,0.209,0.068,0.197,0.136C26.612,210.946,26.517,210.995,26.405,210.995z
			 M41.75,210.901c-0.111,0-0.206-0.047-0.218-0.111c-0.013-0.068,0.074-0.13,0.195-0.137c0.713-0.044,1.438-0.094,2.175-0.15
			c0.121-0.009,0.231,0.039,0.247,0.107c0.016,0.068-0.068,0.131-0.189,0.14c-0.741,0.056-1.469,0.107-2.186,0.151
			C41.766,210.901,41.758,210.901,41.75,210.901z M128.835,210.893c-0.238,0-0.479-0.001-0.721-0.003
			c-0.121-0.001-0.218-0.057-0.217-0.126c0.002-0.068,0.1-0.123,0.22-0.123c0.001,0,0.002,0,0.003,0
			c0.744,0.005,1.475,0.003,2.186-0.01c0.144,0.001,0.223,0.052,0.226,0.121c0.003,0.069-0.092,0.126-0.213,0.128
			C129.833,210.889,129.338,210.893,128.835,210.893z M125.92,210.851c-0.003,0-0.007,0-0.011,0c-0.708-0.02-1.448-0.046-2.2-0.08
			c-0.121-0.005-0.211-0.065-0.202-0.134c0.009-0.069,0.117-0.12,0.236-0.115c0.748,0.033,1.484,0.06,2.187,0.079
			c0.121,0.003,0.214,0.062,0.208,0.131C126.134,210.799,126.037,210.851,125.92,210.851z M132.505,210.809
			c-0.112,0-0.208-0.049-0.218-0.114c-0.011-0.069,0.079-0.129,0.2-0.135c0.756-0.037,1.484-0.088,2.163-0.151
			c0.118-0.01,0.232,0.035,0.252,0.103c0.02,0.068-0.062,0.132-0.181,0.143c-0.69,0.063-1.428,0.115-2.196,0.153
			C132.518,210.809,132.512,210.809,132.505,210.809z M22.052,210.665c-0.012,0-0.025-0.001-0.037-0.002
			c-0.734-0.072-1.463-0.151-2.166-0.237c-0.119-0.014-0.194-0.081-0.169-0.148c0.025-0.067,0.141-0.11,0.261-0.096
			c0.697,0.085,1.419,0.164,2.148,0.235c0.12,0.012,0.2,0.076,0.179,0.144C22.25,210.622,22.157,210.665,22.052,210.665z
			 M121.538,210.66c-0.008,0-0.015,0-0.023-0.001c-0.722-0.042-1.453-0.089-2.189-0.14c-0.12-0.008-0.206-0.07-0.191-0.139
			c0.015-0.068,0.129-0.117,0.244-0.109c0.733,0.051,1.46,0.097,2.18,0.139c0.121,0.007,0.208,0.068,0.196,0.137
			C121.744,210.612,121.649,210.66,121.538,210.66z M46.103,210.569c-0.106,0-0.199-0.044-0.217-0.105
			c-0.019-0.068,0.062-0.132,0.182-0.143c0.709-0.064,1.429-0.134,2.16-0.21c0.119-0.013,0.234,0.033,0.255,0.1
			c0.022,0.068-0.057,0.133-0.177,0.145c-0.734,0.076-1.457,0.146-2.17,0.211C46.126,210.569,46.114,210.569,46.103,210.569z
			 M136.833,210.4c-0.097,0-0.186-0.037-0.212-0.092c-0.031-0.067,0.039-0.135,0.156-0.153c0.408-0.062,0.804-0.131,1.176-0.204
			l0.966-0.104c0.116-0.011,0.234,0.032,0.256,0.1c0.022,0.068-0.056,0.133-0.175,0.145l-0.934,0.099
			c-0.35,0.071-0.756,0.141-1.175,0.205C136.871,210.399,136.851,210.4,136.833,210.4z M117.174,210.358
			c-0.01,0-0.021,0-0.031-0.001c-0.722-0.057-1.449-0.118-2.178-0.182c-0.12-0.01-0.202-0.074-0.184-0.142
			c0.018-0.068,0.133-0.114,0.251-0.104c0.727,0.064,1.452,0.124,2.172,0.182c0.12,0.009,0.204,0.073,0.187,0.141
			C117.376,210.313,117.282,210.358,117.174,210.358z M17.758,210.141c-0.018,0-0.037-0.001-0.056-0.004
			c-0.736-0.11-1.45-0.227-2.121-0.35c-0.116-0.021-0.179-0.091-0.142-0.157c0.037-0.066,0.161-0.101,0.276-0.081
			c0.663,0.121,1.369,0.237,2.098,0.346c0.117,0.017,0.187,0.086,0.157,0.152C17.945,210.104,17.856,210.141,17.758,210.141z
			 M50.423,210.12c-0.102,0-0.193-0.041-0.215-0.099c-0.024-0.067,0.052-0.133,0.171-0.147c0.705-0.082,1.418-0.171,2.141-0.265
			c0.118-0.016,0.236,0.027,0.263,0.094c0.027,0.067-0.047,0.134-0.165,0.149c-0.726,0.095-1.443,0.183-2.15,0.266
			C50.453,210.12,50.438,210.12,50.423,210.12z M12.914,210.026c-0.119,0-0.217-0.054-0.22-0.122
			c-0.021-0.538-0.024-0.827-0.024-0.827c0-0.043,0.038-0.083,0.103-0.106c0.064-0.023,0.148-0.024,0.216-0.006
			c0.032,0.009,0.259,0.07,0.676,0.167c0.112,0.026,0.166,0.099,0.121,0.162c-0.046,0.064-0.174,0.095-0.286,0.068
			c-0.154-0.035-0.282-0.066-0.386-0.092c0.003,0.139,0.009,0.35,0.02,0.628c0.003,0.069-0.094,0.126-0.215,0.127
			C12.917,210.026,12.915,210.026,12.914,210.026z M112.829,209.978c-0.012,0-0.024,0-0.036-0.002
			c-0.722-0.068-1.444-0.139-2.167-0.212c-0.119-0.012-0.199-0.077-0.178-0.144c0.021-0.068,0.135-0.113,0.255-0.101
			c0.721,0.073,1.442,0.144,2.162,0.212c0.12,0.011,0.201,0.076,0.181,0.143C113.027,209.935,112.934,209.978,112.829,209.978z
			 M150.099,209.947c-0.002,0-0.003,0-0.005,0c-0.121-0.002-0.217-0.059-0.214-0.128c0.017-0.419,0.024-0.717,0.026-0.882
			l-0.112,0.012c-0.117,0.012-0.234-0.032-0.256-0.1c-0.022-0.068,0.056-0.133,0.175-0.145l0.374-0.04
			c0.11-0.01,0.214,0.024,0.248,0.083c0.009,0.014,0.012,0.029,0.012,0.043c-0.001,0.094-0.004,0.446-0.028,1.035
			C150.315,209.893,150.218,209.947,150.099,209.947z M150.127,208.787h0.004H150.127z M141.117,209.866
			c-0.103,0-0.196-0.042-0.215-0.102c-0.022-0.068,0.056-0.133,0.175-0.145l2.159-0.229c0.117-0.012,0.234,0.032,0.256,0.1
			c0.022,0.068-0.056,0.133-0.175,0.145l-2.159,0.229C141.144,209.865,141.131,209.866,141.117,209.866z M54.704,209.563
			c-0.098,0-0.188-0.038-0.213-0.094c-0.03-0.067,0.042-0.134,0.159-0.151c0.699-0.1,1.405-0.205,2.119-0.316
			c0.116-0.018,0.238,0.021,0.27,0.087c0.032,0.066-0.037,0.135-0.154,0.153c-0.717,0.112-1.427,0.217-2.128,0.318
			C54.739,209.562,54.721,209.563,54.704,209.563z M108.501,209.542c-0.014,0-0.027-0.001-0.041-0.002
			c-0.723-0.077-1.445-0.155-2.164-0.234c-0.119-0.013-0.197-0.078-0.174-0.146c0.023-0.068,0.14-0.112,0.258-0.099
			c0.718,0.079,1.439,0.157,2.161,0.234c0.119,0.013,0.198,0.078,0.175,0.145C108.697,209.5,108.604,209.542,108.501,209.542z
			 M145.435,209.408c-0.103,0-0.196-0.042-0.215-0.102c-0.022-0.068,0.056-0.133,0.175-0.145l2.159-0.229
			c0.117-0.011,0.234,0.032,0.256,0.1c0.022,0.068-0.056,0.133-0.175,0.145l-2.159,0.229
			C145.462,209.408,145.448,209.408,145.435,209.408z M104.181,209.066c-0.015,0-0.029-0.001-0.044-0.002
			c-0.723-0.082-1.442-0.165-2.156-0.248c-0.119-0.014-0.195-0.08-0.171-0.147c0.024-0.067,0.136-0.111,0.26-0.097
			c0.713,0.083,1.431,0.165,2.154,0.248c0.119,0.014,0.196,0.079,0.172,0.147C104.375,209.026,104.284,209.066,104.181,209.066z
			 M58.939,208.905c-0.095,0-0.182-0.035-0.21-0.089c-0.034-0.066,0.032-0.135,0.148-0.155c0.692-0.116,1.39-0.237,2.096-0.364
			c0.116-0.021,0.239,0.016,0.276,0.081c0.037,0.066-0.027,0.136-0.143,0.156c-0.708,0.127-1.41,0.249-2.104,0.365
			C58.981,208.903,58.96,208.905,58.939,208.905z M99.874,208.567c-0.015,0-0.03-0.001-0.045-0.003l-2.152-0.254
			c-0.118-0.014-0.195-0.08-0.17-0.147c0.024-0.068,0.14-0.111,0.26-0.096l2.152,0.254c0.119,0.014,0.195,0.08,0.17,0.147
			C100.067,208.527,99.976,208.567,99.874,208.567z M63.127,208.153c-0.092,0-0.177-0.033-0.208-0.085
			c-0.039-0.065,0.023-0.136,0.138-0.158c0.389-0.074,0.78-0.151,1.173-0.228c-0.001,0,0.302-0.073,0.903-0.183
			c0.115-0.021,0.239,0.014,0.277,0.08c0.038,0.065-0.026,0.136-0.141,0.157c-0.58,0.107-0.877,0.178-0.88,0.179
			c-0.408,0.081-0.8,0.157-1.191,0.232C63.174,208.151,63.15,208.153,63.127,208.153z M95.568,208.058
			c-0.015,0-0.03-0.001-0.045-0.003c-0.73-0.086-1.448-0.171-2.153-0.252c-0.119-0.014-0.195-0.08-0.171-0.147
			c0.024-0.068,0.142-0.111,0.26-0.097c0.705,0.082,1.424,0.166,2.154,0.252c0.119,0.014,0.195,0.08,0.17,0.147
			C95.762,208.018,95.67,208.058,95.568,208.058z M91.261,207.558c-0.015,0-0.029-0.001-0.043-0.002
			c-0.738-0.083-1.458-0.163-2.156-0.238c-0.119-0.013-0.198-0.078-0.175-0.146c0.022-0.068,0.139-0.112,0.257-0.099
			c0.7,0.075,1.42,0.155,2.16,0.238c0.119,0.013,0.196,0.079,0.172,0.147C91.455,207.517,91.363,207.558,91.261,207.558z
			 M67.316,207.407c-0.099,0-0.189-0.038-0.213-0.095c-0.028-0.067,0.044-0.134,0.162-0.15c0.685-0.093,1.412-0.18,2.161-0.258
			c0.121-0.013,0.234,0.032,0.256,0.1c0.022,0.068-0.057,0.133-0.176,0.145c-0.741,0.077-1.46,0.163-2.137,0.256
			C67.35,207.406,67.333,207.407,67.316,207.407z M86.939,207.097c-0.012,0-0.025-0.001-0.038-0.002
			c-0.755-0.074-1.478-0.141-2.165-0.199c-0.12-0.01-0.203-0.074-0.185-0.142c0.018-0.068,0.131-0.114,0.249-0.105
			c0.691,0.058,1.417,0.125,2.176,0.2c0.119,0.012,0.199,0.076,0.178,0.144C87.136,207.054,87.044,207.097,86.939,207.097z
			 M71.633,206.954c-0.108,0-0.202-0.045-0.217-0.108c-0.016-0.068,0.068-0.131,0.188-0.14c0.715-0.055,1.452-0.104,2.19-0.144
			c0.127-0.008,0.228,0.044,0.24,0.112c0.012,0.069-0.077,0.129-0.198,0.136c-0.733,0.04-1.464,0.088-2.173,0.143
			C71.653,206.954,71.643,206.954,71.633,206.954z M82.588,206.737c-0.008,0-0.016,0-0.024-0.001
			c-0.818-0.049-1.549-0.078-2.174-0.086c-0.121-0.001-0.217-0.059-0.215-0.127c0.003-0.069,0.105-0.124,0.224-0.122
			c0.637,0.008,1.381,0.037,2.211,0.087c0.121,0.007,0.208,0.069,0.195,0.137C82.794,206.69,82.698,206.737,82.588,206.737z
			 M76.004,206.715c-0.115,0-0.212-0.051-0.219-0.117c-0.007-0.069,0.085-0.128,0.206-0.132c0.716-0.024,1.457-0.042,2.202-0.053
			c0.123,0.007,0.222,0.053,0.225,0.121c0.003,0.069-0.093,0.126-0.214,0.128c-0.739,0.011-1.475,0.029-2.187,0.053
			C76.013,206.715,76.009,206.715,76.004,206.715z"/>
	</g>
</g>
</svg>
